<svg width="222" height="141" viewBox="0 0 222 141" fill="none" xmlns="http://www.w3.org/2000/svg">
<path fill-rule="evenodd" clip-rule="evenodd" d="M33.6221 111.148H71.7673V114.545H34.8622L44.1249 140.577H40.644L16.668 74.6278L19.8647 73.4645L33.6221 111.148Z" fill="black"/>
<path fill-rule="evenodd" clip-rule="evenodd" d="M5.68194 136.729C5.68194 136.729 6.15217 114.685 6.51219 97.808C6.74259 86.9997 15.2717 78.1913 26.0852 77.5947C49.9793 76.2632 73.5682 75.9247 96.6708 77.1641C107.892 77.7682 117.158 86.1321 118.885 97.2167C118.891 97.2156 118.891 97.2156 118.891 97.2156C119.837 103.279 118.186 109.458 114.342 114.246C109.465 120.3 101.23 128.733 88.4799 136.778C88.4799 136.778 93.1951 138.138 93.6769 140.241C93.6769 140.241 57.8007 140.199 48.6576 140.19C48.3208 140.188 48.0188 139.982 47.8971 139.668C47.7754 139.355 47.859 138.998 48.1076 138.772C54.5303 132.912 78.718 110.843 78.718 110.843L37.919 111.257C37.919 111.257 37.2636 134.025 37.1097 139.373C37.0918 139.992 36.5812 140.485 35.9601 140.481C29.8283 140.438 0.546775 140.238 0.546775 140.238C0.546775 140.238 0.344926 138.101 5.68194 136.729Z" fill="url(#paint0_linear)"/>
<path fill-rule="evenodd" clip-rule="evenodd" d="M98.06 130.075L66.8284 121.705L67.768 120.847L99.1105 129.247C98.765 129.523 98.4152 129.799 98.06 130.075ZM37.663 120.406L6.02124 121.169L6.0441 120.096L37.6939 119.334L37.663 120.406Z" fill="#82B5B2"/>
<path fill-rule="evenodd" clip-rule="evenodd" d="M78.6589 110.893L89.76 110.867C89.8663 110.867 89.9564 110.944 89.9725 111.049C89.9886 111.154 89.9264 111.255 89.8244 111.287L72.1952 116.791L78.6589 110.893ZM37.9116 111.291L37.7679 116.285L28.4041 112.078C28.2227 111.996 28.1232 111.799 28.165 111.605C28.207 111.41 28.3791 111.272 28.5779 111.273L37.9116 111.291Z" fill="#346864"/>
<path fill-rule="evenodd" clip-rule="evenodd" d="M92.1503 31.1444C92.1503 31.1444 81.369 16.6132 57.116 22.9596C53.8499 23.8143 27.9807 32.01 17.7757 55.0367C16.7779 57.2883 11.3976 67.5255 19.1975 72.9982C24.6395 76.8181 30.475 76.11 50.9224 69.279C52.6527 68.7006 63.3108 66.4533 61.384 63.9962C61.384 63.9962 62.2439 64.1699 62.6569 63.5987C62.6569 63.5987 62.7041 63.893 62.7391 64.1106C62.7629 64.2593 62.8333 64.3966 62.9402 64.5028C63.4289 64.9893 64.897 66.45 65.8205 67.3691C65.9794 67.5266 66.2114 67.5866 66.4268 67.5244C66.6423 67.4634 66.8074 67.2899 66.858 67.0713C67.1307 65.8995 67.5278 64.1923 67.5278 64.1923C67.5278 64.1923 77.2279 66.2937 83.0741 56.858C83.0741 56.858 83.3177 66.178 90.545 69.94C92.6557 71.039 104.376 73.3731 107.452 61.3072C109.602 52.8675 111.173 37.7874 112.548 26.9523C112.548 26.9523 119.73 22.4517 120.273 20.2961C120.468 19.5218 119.68 18.2501 117.925 19.5362C117.925 19.5362 120.546 17.311 119.672 16.2624C119.185 15.6791 118.188 15.6486 116.213 17.3363C116.213 17.3363 118.673 14.8218 117.549 13.8155C116.341 12.7348 114.938 14.9576 113.653 16.1541C113.653 16.1541 116.514 11.7691 114.896 11.0119C114.21 10.6911 113.469 10.6507 110.972 13.7897C108.66 16.6966 105.38 16.9965 103.004 16.7113C103.004 16.7113 103.939 11.2345 102.867 10.7038C101.657 10.1042 100.565 11.1762 97.9353 16.5619C95.3385 21.8769 94.0432 27.1431 92.1503 31.1444Z" fill="url(#paint1_linear)"/>
<path fill-rule="evenodd" clip-rule="evenodd" d="M63.612 21.6808C82.3667 19.328 91.283 30.0303 92.09 31.0547C90.8667 35.4108 88.7688 44.7167 88.7688 44.7167L86.5614 44.6858C86.5969 50.1235 83.0846 56.6224 83.0846 56.6224L83.0707 56.8511C77.5121 65.8171 68.3486 64.3302 67.4833 64.2018L67.766 62.7839L67.0314 60.7266L66.8029 60.1438C66.8029 60.1438 67.8165 58.7878 68.7144 57.5864C69.472 56.5726 69.2951 55.1429 68.313 54.3437C66.349 52.7454 63.4404 50.3785 63.4404 50.3785C63.4235 50.3656 63.4066 50.3526 63.3899 50.3399C61.0533 48.5554 58.1008 47.7738 55.1856 48.1679C49.0073 49.0032 36.5856 50.6828 36.5856 50.6828L29.0861 39.1082C37.8354 30.6823 48.0982 26.0909 53.5635 24.0988L63.612 21.6808Z" fill="#82B5B2"/>
<path fill-rule="evenodd" clip-rule="evenodd" d="M62.6589 63.6313C62.8682 63.3773 63.5598 62.4186 62.9395 61.4932L62.0666 60.4396C62.0666 60.4396 63.2911 60.6159 63.7887 60.5686C63.7887 60.5686 63.7203 61.7924 64.7328 62.0051C65.0098 62.0624 65.2955 61.9589 65.4713 61.7376C65.9598 61.125 67.0539 59.7479 67.0539 59.7479C67.0539 59.7479 67.6639 62.376 67.7743 62.8513C67.7854 62.8995 67.7857 62.9497 67.775 62.998C67.6745 63.4518 67.1418 65.8571 67.1418 65.8571L66.8567 67.0825C66.806 67.301 66.641 67.4746 66.4255 67.5356C66.21 67.5978 65.978 67.5378 65.8192 67.3803C64.8957 66.4612 63.4276 65.0005 62.9388 64.514C62.8319 64.4078 62.7615 64.2704 62.7377 64.1218L62.6589 63.6313ZM58.3352 48.1904C58.3352 48.1904 62.2211 48.7586 64.7147 51.5184L62.9967 43.2424L57.3042 43.2753L58.3352 48.1904Z" fill="#FFBF2F"/>
<path fill-rule="evenodd" clip-rule="evenodd" d="M67.1791 65.7117L67.1494 65.8456L66.8643 67.071C66.8136 67.2896 66.6486 67.4631 66.4331 67.5242C66.2176 67.5863 65.9856 67.5263 65.8268 67.3688L64.5202 66.0684L67.1791 65.7117ZM63.3215 60.5572C63.5047 60.5668 63.6728 60.569 63.7963 60.5572C63.7963 60.5572 63.728 61.7809 64.7404 61.9936C64.8504 62.0163 64.9617 62.0138 65.0671 61.9885L65.2246 62.7198L67.5943 62.0315L67.7819 62.8399C67.7877 62.8648 67.7905 62.8902 67.7905 62.9156L62.8431 64.3725C62.7938 64.2929 62.7604 64.2038 62.7454 64.1103L62.6666 63.6198C62.7042 63.5743 62.7572 63.5061 62.8153 63.4195L63.8744 63.1119L63.3215 60.5572ZM60.7957 48.8851L59.5765 43.2508L61.0285 43.2424L62.4125 49.6664C61.8574 49.3445 61.3056 49.088 60.7957 48.8851Z" fill="black"/>
<path fill-rule="evenodd" clip-rule="evenodd" d="M61.592 64.7989L58.3277 64.5383C58.0916 64.5195 57.9151 64.3129 57.934 64.0771C57.9529 63.8414 58.1599 63.6653 58.3961 63.6842L62.073 63.9775C61.7202 64.0662 61.3841 63.9982 61.3841 63.9982C61.5959 64.2683 61.6557 64.5359 61.592 64.7989ZM63.0706 60.7582C63.1006 60.7357 63.1343 60.7169 63.171 60.7025C63.171 60.7025 63.5822 60.5415 64.0204 60.3699C64.5364 60.1679 64.9196 59.7251 65.0447 59.1861C65.0447 59.1859 65.0447 59.1859 65.0447 59.1858C65.3 58.0865 64.8404 56.9449 63.8939 56.3278C62.8187 55.6267 61.6681 54.8764 61.6681 54.8764C61.4697 54.7471 61.4138 54.4813 61.5435 54.2833C61.673 54.0854 61.9392 54.0296 62.1375 54.159L64.2783 55.5548L64.3356 55.0691C64.3633 54.8342 64.5769 54.666 64.8121 54.6936C65.0474 54.7212 65.2159 54.9344 65.1882 55.1692L65.0652 56.2113C65.8254 57.0573 66.1467 58.2356 65.8811 59.3793C65.8811 59.3794 65.8811 59.3794 65.881 59.3795C65.692 60.1936 65.1133 60.8626 64.3338 61.1677C63.8957 61.3392 63.4845 61.5002 63.4845 61.5002C63.3316 61.5601 63.1649 61.5263 63.0482 61.4265C62.9397 61.5074 62.7947 61.5359 62.6565 61.4904L58.994 60.2842C58.769 60.2101 58.6467 59.9677 58.7209 59.7431C58.7951 59.5186 59.038 59.3963 59.2629 59.4705L62.9255 60.6766C62.9804 60.6947 63.0293 60.7228 63.0706 60.7582ZM88.9204 40.0369C88.9204 40.0369 85.7935 53.1255 85.1077 58.9711C85.0798 59.2059 85.2483 59.4189 85.4844 59.4465C85.7194 59.474 85.933 59.3056 85.9598 59.0708C86.6433 53.2558 89.7564 40.2358 89.7564 40.2358C89.8111 40.0058 89.6684 39.7745 89.4377 39.7196C89.208 39.6648 88.9762 39.8069 88.9204 40.0369ZM38.895 48.9815C31.4506 50.6472 26.9021 52.0621 24.6913 53.2907C24.4326 53.4344 24.3395 53.7608 24.4836 54.0191C24.6276 54.2775 24.9546 54.3703 25.2133 54.2266C27.3784 53.0235 31.8391 51.6581 39.1298 50.0268C39.4186 49.9622 39.6007 49.6754 39.5359 49.3871C39.4711 49.0986 39.1839 48.9169 38.895 48.9815ZM112.681 26.8695C112.594 26.9249 112.548 26.9544 112.548 26.9544C112.448 27.7388 112.347 28.5455 112.246 29.3701L110.044 28.792C109.96 28.77 109.898 28.6994 109.888 28.6134C109.876 28.5274 109.918 28.4431 109.993 28.4002L112.681 26.8695ZM119.811 16.5154C120.173 17.6303 117.925 19.5383 117.925 19.5383C117.989 19.491 118.053 19.4473 118.114 19.4069C116.546 20.8417 114.429 22.544 112.385 23.4422C112.168 23.5375 111.915 23.4392 111.819 23.2227C111.724 23.0063 111.822 22.7532 112.039 22.658C115.48 21.1457 119.13 17.2615 119.811 16.5154ZM117.842 14.5312C117.823 15.6926 116.213 17.3384 116.213 17.3384C116.331 17.2366 116.447 17.1411 116.56 17.0516C114.98 18.5678 112.693 20.5715 110.683 21.5903C110.471 21.6975 110.213 21.6132 110.105 21.4023C109.998 21.1914 110.083 20.9334 110.294 20.8263C113.536 19.1829 117.516 14.8875 117.842 14.5312ZM115.221 12.9485C114.784 14.4235 113.653 16.1562 113.653 16.1562C113.688 16.1236 113.724 16.0903 113.758 16.0565C112.449 17.4242 110.682 18.9215 108.693 19.6744C108.471 19.7582 108.223 19.6468 108.139 19.4257C108.056 19.2046 108.167 18.9569 108.388 18.8731C111.821 17.5736 114.545 13.917 115.221 12.9485Z" fill="#82B5B2"/>
<path fill-rule="evenodd" clip-rule="evenodd" d="M49.7532 48.9242L53.0719 45.4072C53.2213 45.249 53.4529 45.1989 53.6544 45.2813C53.856 45.3637 53.9859 45.5616 53.981 45.779L53.9242 48.3603L49.7532 48.9242ZM86.5593 45.2367C86.5496 44.7696 86.4831 42.0057 86.1977 40.109C86.1762 40.0194 86.2256 39.9279 86.3125 39.8957C86.3983 39.8636 86.496 39.901 86.5378 39.9829C87.1581 41.1622 88.1002 43.0744 88.64 44.7359L86.5668 44.707C86.5679 44.8825 86.5647 45.0593 86.5593 45.2367Z" fill="#346864"/>
<path d="M62.8168 18.5445C67.4425 18.5445 71.1924 14.7887 71.1924 10.1557C71.1924 5.52278 67.4425 1.76703 62.8168 1.76703C58.191 1.76703 54.4412 5.52278 54.4412 10.1557C54.4412 14.7887 58.191 18.5445 62.8168 18.5445Z" fill="#99C3C0"/>
<path fill-rule="evenodd" clip-rule="evenodd" d="M57.2486 16.42C55.5263 14.8828 54.4412 12.6451 54.4412 10.1557C54.4412 5.52583 58.1942 1.76703 62.8167 1.76703C65.6481 1.76703 68.1532 3.17714 69.6697 5.33419L62.8104 11.4561C62.7282 11.2149 62.6026 10.9797 62.4331 10.7633C61.7165 9.84881 60.4834 9.61487 59.6813 10.2412C58.8791 10.8675 58.8097 12.1184 59.5263 13.0329C59.749 13.3171 60.0214 13.5355 60.3155 13.6829L57.2486 16.42Z" fill="black"/>
<path d="M156.051 24.6999H149.651L152.351 33.9795H158.751L156.051 24.6999Z" fill="white"/>
<path fill-rule="evenodd" clip-rule="evenodd" d="M152.507 33.7668H154.528C154.644 33.7668 154.74 33.8617 154.74 33.9785C154.74 34.0953 154.644 34.1902 154.527 34.1902H152.348C152.254 34.1902 152.171 34.128 152.145 34.0375L149.445 24.758C149.427 24.694 149.439 24.6251 149.479 24.5719C149.519 24.5186 149.582 24.4873 149.649 24.4873H154.138C154.255 24.4873 154.35 24.5821 154.35 24.699C154.35 24.8158 154.256 24.9106 154.139 24.9106H149.931L152.507 33.7668Z" fill="black"/>
<path fill-rule="evenodd" clip-rule="evenodd" d="M155.894 24.9106H154.143C154.026 24.9106 153.931 24.8158 153.931 24.699C153.931 24.5821 154.026 24.4873 154.143 24.4873H156.054C156.147 24.4873 156.23 24.5495 156.257 24.64L158.955 33.9195C158.974 33.9835 158.961 34.0524 158.921 34.1057C158.881 34.1588 158.819 34.1902 158.752 34.1902H154.53C154.413 34.1902 154.318 34.0954 154.319 33.9785C154.319 33.8617 154.414 33.7669 154.531 33.7669H158.47L155.894 24.9106Z" fill="black"/>
<path d="M155.775 25.5233H150.476L150.831 26.5497H156.13L155.775 25.5233Z" fill="black"/>
<path d="M156.294 27.2023H150.995L151.35 28.2287H156.649L156.294 27.2023Z" fill="black"/>
<path d="M156.813 28.9171H151.514L151.869 29.9435H157.168L156.813 28.9171Z" fill="black"/>
<path d="M157.332 30.5961H152.033L152.388 31.6224H157.687L157.332 30.5961Z" fill="black"/>
<path d="M157.85 32.2751H152.552L152.907 33.3014H158.206L157.85 32.2751Z" fill="black"/>
<path fill-rule="evenodd" clip-rule="evenodd" d="M157.534 30.031C157.324 29.4421 156.075 25.7566 157.04 24.1917C157.106 24.0898 157.21 24.0191 157.328 23.9965C157.671 23.941 158.403 24.0855 159.438 25.7521C159.438 25.7521 168.841 39.8484 172.235 41.9544C172.235 41.9544 172.325 31.1907 185.021 29.4309C186.783 29.1865 199.168 26.7834 206.11 43.9379C208.407 49.6134 208.381 54.1513 208.34 59.0018C208.313 62.8468 206.314 66.4098 203.042 68.4397C198.755 71.1005 193.439 71.5161 188.79 69.5526C185.67 68.2404 181.644 66.9068 177.074 66.2352L167.04 65.2668C167.04 65.2668 167.541 68.0037 163.387 67.4767C163.387 67.4767 160.117 67.0461 160.77 64.8563C160.77 64.8563 158.566 64.5004 159.021 62.3737C159.021 62.3737 156.932 60.7463 158.787 58.7597C158.787 58.7597 152.755 58.6873 151.529 55.8198C151.426 55.5717 151.419 55.2936 151.513 55.0413C151.625 54.7295 151.917 54.3974 152.629 54.3731C152.629 54.3731 160.973 54.2451 163.168 53.6175L158.399 45.5171C158.399 45.5171 154.684 43.4787 153.827 40.2203C152.945 40.2243 152.196 39.5452 152.129 38.6532C152.071 37.8902 152.53 37.2064 153.21 36.9445L152.82 36.9739C151.897 37.0433 151.092 36.3522 151.022 35.4315C150.966 34.6885 151.406 34.0215 152.063 33.7553C151.172 33.7964 150.405 33.1222 150.338 32.2293C150.269 31.3202 150.952 30.5265 151.862 30.4579L157.534 30.031Z" fill="url(#paint2_linear)"/>
<path fill-rule="evenodd" clip-rule="evenodd" d="M166.897 66.3295C164.933 66.217 163.357 66.6873 163.357 66.6873C163.072 66.773 162.773 66.6112 162.688 66.3285C162.604 66.0457 162.765 65.7468 163.049 65.6611C163.049 65.6611 165.342 64.9747 167.944 65.3622L167.034 65.2744C167.034 65.2744 167.129 65.7896 166.897 66.3295ZM159.755 64.4447C160.13 63.3078 161.408 60.8002 165.469 60.1817C165.761 60.1371 166.035 60.3382 166.079 60.6304C166.124 60.9226 165.923 61.1961 165.63 61.2406C162.049 61.7861 161.014 64.0324 160.75 64.8615C160.667 64.8459 160.193 64.7479 159.755 64.4447ZM158.24 61.4002C158.765 60.283 160.196 58.4675 164.039 57.7528C164.33 57.6987 164.611 57.8907 164.665 58.1813C164.72 58.4719 164.527 58.7518 164.236 58.8059C159.44 59.6976 159 62.4488 159.015 62.3812C159.015 62.3812 158.535 62.0077 158.24 61.4002ZM157.45 58.6746C158.077 57.8623 160.065 55.6019 162.997 55.1824C163.29 55.1404 163.563 55.3439 163.605 55.6366C163.647 55.9292 163.443 56.2008 163.15 56.2428C161.085 56.538 159.572 57.8888 158.774 58.7716C158.674 58.7697 158.157 58.7516 157.45 58.6746ZM188.658 53.2533L195.209 55.5522C195.488 55.6502 195.795 55.5035 195.894 55.2245C195.992 54.9457 195.845 54.6396 195.566 54.5416L189.014 52.2426C188.734 52.1446 188.428 52.2915 188.33 52.5703C188.232 52.8493 188.379 53.1552 188.658 53.2533ZM162.604 52.6743C163.291 52.5386 170.862 51.0712 176.384 51.1304C176.68 51.1336 176.919 51.3762 176.915 51.6718C176.912 51.9673 176.669 52.2047 176.372 52.2016C170.676 52.1404 163.016 53.6672 163.163 53.625L162.604 52.6743ZM158.393 45.5246L160.053 46.27C160.269 46.3697 160.361 46.6248 160.262 46.8392C160.161 47.0537 159.906 47.1469 159.691 47.0472L159.139 46.7904L158.393 45.5246ZM157.247 29.167C158.218 29.3249 158.909 29.8426 159.16 30.252C159.721 31.1658 159.499 32.0627 158.963 32.7016C158.997 32.8718 159.056 33.1316 159.145 33.448C159.275 33.5392 159.384 33.6341 159.476 33.7288C159.972 34.244 160.005 34.7907 160.014 34.9594C160.025 35.1628 160.007 35.3518 159.964 35.5273C160.432 36.4063 161.091 37.2732 162.021 37.7721C162.229 37.8839 162.307 38.1439 162.196 38.3522C162.084 38.5606 161.823 38.6389 161.614 38.527C161.22 38.3156 160.866 38.049 160.548 37.7459C160.549 37.75 160.55 37.754 160.551 37.758C160.9 38.846 160.34 40.0206 159.272 40.4363C157.645 41.0736 155.366 41.1159 154.12 41.0818C154 40.8075 153.899 40.5227 153.821 40.2278C153.712 40.2283 157.081 40.3737 158.958 39.6382C159.613 39.3837 159.951 38.6604 159.727 37.9962C159.723 37.9888 159.721 37.9813 159.719 37.9738C159.558 37.5319 159.118 37.2528 158.648 37.2971L157.764 37.3805C157.594 37.4308 157.487 37.4527 157.487 37.4527C157.401 37.4703 157.315 37.4608 157.24 37.4299L152.24 37.9017C152.415 37.4699 152.762 37.1221 153.204 36.952L157.606 36.5347C157.867 36.4524 158.261 36.2991 158.597 36.0476C158.912 35.8109 159.184 35.4798 159.157 35.0067C159.151 34.9131 159.133 34.6096 158.857 34.3234C158.516 33.9706 157.847 33.6735 156.566 33.6439C156.532 33.6432 156.499 33.6383 156.468 33.63C154.969 33.6795 153.432 33.7025 151.904 33.7627C151.343 33.7369 150.846 33.4284 150.566 32.9684C152.786 32.8426 155.052 32.8337 157.218 32.7449C157.524 32.7323 157.857 32.5749 158.124 32.3363C158.161 32.2716 158.215 32.2168 158.28 32.1785C158.613 31.7952 158.754 31.2617 158.428 30.6995C158.126 30.1787 157.528 30.0385 157.528 30.0385C157.478 29.8988 157.37 29.5851 157.247 29.167ZM159.961 37.4662C159.816 37.5273 159.793 37.591 159.782 37.6117C159.805 37.5792 159.833 37.5497 159.864 37.5244C159.893 37.5014 159.925 37.4818 159.961 37.4663L159.968 37.4633L159.961 37.4662ZM159.479 36.4049C159.438 36.4496 159.394 36.4927 159.35 36.5343C159.452 36.5687 159.551 36.6115 159.645 36.6623C159.587 36.5773 159.532 36.4913 159.479 36.4049Z" fill="#FD9500"/>
<path fill-rule="evenodd" clip-rule="evenodd" d="M172.199 41.9176L172.234 41.9396C172.234 41.9396 172.324 31.1759 185.02 29.416C186.782 29.1717 199.168 26.7686 206.11 43.9231C206.134 43.9828 206.158 44.0423 206.181 44.1015C202.067 48.4243 197.544 45.166 197.544 45.166C195.332 51.9151 188.261 49.0154 188.261 49.0154L190.549 53.8914C185.206 51.9326 174.813 52.2169 174.813 52.2169C172.658 49.5064 172.249 44.6249 172.199 41.9176Z" fill="#FD9500"/>
<path fill-rule="evenodd" clip-rule="evenodd" d="M188.041 53.1902C188.041 53.1902 186.661 48.744 185.667 45.5461C185.623 45.4028 185.696 45.2493 185.835 45.1926C185.974 45.1361 186.134 45.1952 186.203 45.3288C187.962 48.7617 190.613 53.9348 190.613 53.9348L188.041 53.1902Z" fill="#E86135"/>
<path fill-rule="evenodd" clip-rule="evenodd" d="M148.817 81.9705C158.778 69.909 179.406 74.3833 183.948 74.981C213.339 78.8491 206.819 101.386 205.757 104.264C203.424 110.581 197.808 113.024 189.426 113.874V138.39C189.426 138.39 186.868 136.109 186.279 133.519C186.279 133.519 185.271 133.457 183.526 133.283C183.526 133.283 184.853 136.879 185.552 138.772C185.648 139.032 185.611 139.321 185.452 139.547C185.294 139.774 185.036 139.909 184.759 139.909H151.384C153.201 136.597 156.78 136.625 156.78 136.625C155.382 133.128 153.94 129.728 152.52 126.258C143.379 122.612 135.319 117.201 132.861 109.211C131.907 106.111 131.344 92.4714 148.817 81.9705Z" fill="url(#paint3_linear)"/>
<path fill-rule="evenodd" clip-rule="evenodd" d="M153.518 128.68C156.841 130.354 162.594 131.907 166.407 125.52C166.487 125.383 166.624 125.291 166.779 125.265C166.935 125.239 167.094 125.283 167.215 125.385C167.215 125.385 169.599 127.397 172.532 128.391C174.223 128.964 176.103 129.207 177.792 128.446C178.91 127.941 179.936 126.996 180.774 125.439C180.914 125.179 181.239 125.08 181.501 125.221C181.762 125.361 181.859 125.686 181.719 125.946C180.745 127.755 179.534 128.836 178.233 129.422C176.292 130.297 174.13 130.065 172.186 129.406C169.878 128.623 167.889 127.248 167.007 126.583C163.173 132.469 157.743 131.637 154.109 130.107L153.856 129.498C153.767 129.283 153.678 129.067 153.589 128.852L153.518 128.68Z" fill="#FD9500"/>
<path fill-rule="evenodd" clip-rule="evenodd" d="M177.607 114.104C177.607 114.104 168.496 114.067 163.483 114.047C163.278 114.046 163.103 114.198 163.076 114.401C163.051 114.605 163.179 114.796 163.378 114.848C168.632 116.223 178.695 118.858 178.695 118.858L177.607 114.104Z" fill="#FD9500"/>
<path fill-rule="evenodd" clip-rule="evenodd" d="M190.082 113.801C189.865 113.826 189.647 113.849 189.426 113.872V114.917C185.425 115.168 181.719 115.23 178.105 115.181L184.672 133.389C184.337 133.359 183.953 133.324 183.526 133.281L184.483 135.875C184.428 135.82 184.383 135.753 184.355 135.675L176.957 115.163C176.281 115.149 175.609 115.132 174.936 115.111C174.641 115.103 174.408 114.855 174.416 114.561C174.425 114.265 174.673 114.033 174.968 114.041C179.782 114.186 184.653 114.169 190.082 113.801ZM151.512 79.2875C145.397 84.7312 142.985 90.6721 144.671 101.022C145.82 108.07 148.848 117.128 153.876 129.392C153.91 129.473 153.921 129.557 153.915 129.639C153.449 128.515 152.984 127.389 152.52 126.256C152.092 126.085 151.667 125.911 151.244 125.732C147.15 115.397 144.639 107.497 143.612 101.194C142.356 93.4882 143.293 88.1269 146.245 83.6236C147.055 83.0645 147.911 82.5128 148.817 81.9687C149.646 80.9639 150.55 80.0737 151.512 79.2875Z" fill="#FD9500"/>
<path d="M175.311 28.8171C179.659 28.8171 183.184 25.2729 183.184 20.9007C183.184 16.5286 179.659 12.9843 175.311 12.9843C170.964 12.9843 167.439 16.5286 167.439 20.9007C167.439 25.2729 170.964 28.8171 175.311 28.8171Z" fill="#FFBF2F"/>
<path fill-rule="evenodd" clip-rule="evenodd" d="M169.196 15.9175C170.64 14.131 172.842 12.9885 175.308 12.9885C179.653 12.9885 183.181 16.5357 183.181 20.9049C183.181 21.798 183.034 22.6567 182.762 23.4573C181.373 23.3359 180.585 22.3037 180.313 21.8721C180.821 21.6112 181.174 21.0359 181.174 20.369C181.174 19.457 180.514 18.7165 179.7 18.7165C178.887 18.7165 178.227 19.457 178.227 20.369C178.227 20.5845 178.264 20.7906 178.331 20.9796C173.343 21.5159 170.171 17.4055 169.196 15.9175ZM172.772 11.7285C172.975 11.797 173.2 11.7186 173.317 11.5381C173.433 11.3578 173.412 11.1213 173.265 10.9642C173.223 10.9127 173.176 10.8625 173.127 10.8109C171.886 9.51959 170.489 8.34771 169.001 7.35643C164.423 4.30665 158.968 2.02544 153.606 0.815C148.067 -0.435292 141.153 -0.505667 136.258 2.73007C133.038 4.85863 130.63 9.36256 133.406 12.8797C134.402 14.1412 135.832 15.018 137.311 15.6084C143.297 17.9985 149.538 16.4907 155.224 14.0974C158.462 12.7348 161.681 10.9284 165.207 10.3679C167.421 10.016 170.837 11.0445 172.772 11.7285Z" fill="black"/>
<path fill-rule="evenodd" clip-rule="evenodd" d="M203.123 114.12L218.102 73.7504L221.299 74.9137L197.513 140.065H193.496L201.863 117.516H178.032V114.12H203.123Z" fill="black"/>
<path d="M145.637 31.7036H100.607L105.937 63.2729H150.967L145.637 31.7036Z" fill="black"/>
<path d="M134.101 61.7114H124.047L125.51 70.3775H135.563L134.101 61.7114Z" fill="black"/>
<path d="M143.18 34.0972H103.792L108.196 60.1953H147.584L143.18 34.0972Z" fill="#EAEAEB"/>
<path d="M141.922 36.419H128.539L130.496 48.0116H143.88L141.922 36.419Z" fill="white"/>
<path fill-rule="evenodd" clip-rule="evenodd" d="M128.924 36.7403L129.601 40.7503C129.631 40.9252 129.512 41.0911 129.337 41.1205C129.162 41.15 128.996 41.0319 128.966 40.857L128.226 36.4724C128.21 36.3791 128.236 36.2837 128.297 36.2115C128.359 36.1393 128.448 36.0977 128.543 36.0977H141.927C142.084 36.0977 142.218 36.2109 142.244 36.3656L142.985 40.7503C143.014 40.9252 142.896 41.0911 142.721 41.1205C142.546 41.15 142.38 41.0319 142.35 40.857L141.655 36.7403H128.924Z" fill="black"/>
<path fill-rule="evenodd" clip-rule="evenodd" d="M143.496 47.6995L142.343 40.8664C142.314 40.6915 142.432 40.5255 142.607 40.4961C142.782 40.4666 142.948 40.5847 142.978 40.7596L144.194 47.9675C144.21 48.0607 144.184 48.1561 144.123 48.2283C144.062 48.3005 143.972 48.3421 143.877 48.3421H130.493C130.336 48.3421 130.202 48.2289 130.176 48.0742L128.959 40.8664C128.93 40.6915 129.048 40.5255 129.223 40.4961C129.399 40.4666 129.565 40.5847 129.594 40.7596L130.766 47.6995H143.496Z" fill="black"/>
<path fill-rule="evenodd" clip-rule="evenodd" d="M135.347 48.0117H134.695L132.726 36.4191H133.379L135.347 48.0117ZM140.108 48.0117H139.455L137.487 36.4191H138.139L140.108 48.0117Z" fill="black"/>
<path fill-rule="evenodd" clip-rule="evenodd" d="M143.425 45.3497H130.042L129.933 44.707H143.317L143.425 45.3497ZM142.944 42.4923H129.56L129.452 41.8496H142.835L142.944 42.4923ZM142.425 39.4196H129.042L128.932 38.7769H142.317L142.425 39.4196Z" fill="black"/>
<path fill-rule="evenodd" clip-rule="evenodd" d="M125.136 57.8993H135.817L132.85 40.313H125.136" fill="white"/>
<path fill-rule="evenodd" clip-rule="evenodd" d="M132.583 40.6342H125.141C124.964 40.6342 124.819 40.4902 124.819 40.3128C124.819 40.1354 124.964 39.9915 125.141 39.9915H132.855C133.012 39.9915 133.146 40.1047 133.172 40.2594L136.14 57.8457C136.156 57.9389 136.13 58.0343 136.069 58.1065C136.007 58.1787 135.917 58.2204 135.823 58.2204H125.141C124.963 58.2204 124.819 58.0764 124.819 57.899C124.819 57.7216 124.964 57.5776 125.141 57.5776H135.442L132.583 40.6342Z" fill="black"/>
<path fill-rule="evenodd" clip-rule="evenodd" d="M125.138 40.3129H109.661L112.63 57.8992H125.139" fill="white"/>
<path fill-rule="evenodd" clip-rule="evenodd" d="M112.907 57.5777H125.144C125.321 57.5777 125.466 57.7216 125.466 57.8991C125.466 58.0764 125.322 58.2204 125.144 58.2204H112.635C112.478 58.2204 112.344 58.1071 112.318 57.9524L109.348 40.3662C109.332 40.273 109.359 40.1775 109.42 40.1053C109.481 40.0331 109.571 39.9915 109.666 39.9915H125.142C125.32 39.9915 125.464 40.1354 125.465 40.3128C125.464 40.4902 125.32 40.6342 125.142 40.6342H110.046L112.907 57.5777Z" fill="black"/>
<path d="M132.851 40.3129H109.661L110.017 42.4247H133.208L132.851 40.3129Z" fill="black"/>
<path fill-rule="evenodd" clip-rule="evenodd" d="M134.989 52.9425H111.799L111.691 52.2998H134.881L134.989 52.9425ZM134.033 47.2788H110.844L110.734 46.6361H133.925L134.033 47.2788Z" fill="black"/>
<path fill-rule="evenodd" clip-rule="evenodd" d="M118.578 57.8992H117.926L114.939 40.313H115.592L118.578 57.8992ZM124.898 57.8992H124.244L121.258 40.313H121.911L124.898 57.8992ZM131.138 57.8992H130.485L127.499 40.313H128.151L131.138 57.8992Z" fill="black"/>
<path d="M133.275 50.5067C133.289 50.6821 133.255 50.8448 133.174 50.9948C133.088 51.141 132.962 51.2617 132.788 51.3574C132.614 51.449 132.403 51.5065 132.155 51.5258C131.857 51.5491 131.609 51.5151 131.407 51.42C131.267 51.353 131.145 51.2558 131.051 51.1318C130.952 51.0082 130.9 50.885 130.891 50.7626C130.885 50.6892 130.906 50.626 130.956 50.5728C131.003 50.5158 131.064 50.4864 131.143 50.4802C131.206 50.4753 131.263 50.4914 131.312 50.5245C131.361 50.5617 131.404 50.62 131.439 50.6952C131.484 50.786 131.532 50.8603 131.583 50.9179C131.63 50.9758 131.697 51.0239 131.78 51.0585C131.867 51.0927 131.974 51.1049 132.104 51.0947C132.285 51.0806 132.429 51.0284 132.536 50.9379C132.643 50.8475 132.689 50.7412 132.68 50.6188C132.672 50.5209 132.636 50.4457 132.569 50.3895C132.505 50.3329 132.422 50.2942 132.323 50.2691C132.223 50.244 132.091 50.2216 131.928 50.1973C131.71 50.1651 131.525 50.1221 131.373 50.0683C131.221 50.0145 131.1 49.9336 131.003 49.8262C130.91 49.7186 130.858 49.5831 130.844 49.4118C130.832 49.2527 130.867 49.1063 130.945 48.973C131.028 48.8434 131.15 48.7353 131.313 48.6569C131.48 48.5741 131.679 48.5258 131.91 48.5077C132.095 48.4933 132.256 48.5012 132.394 48.5356C132.531 48.57 132.65 48.6223 132.744 48.6889C132.838 48.7554 132.907 48.828 132.955 48.9063C133.003 48.9846 133.031 49.0605 133.037 49.138C133.042 49.2074 133.022 49.2746 132.976 49.3316C132.926 49.3929 132.865 49.4264 132.789 49.4323C132.718 49.4379 132.666 49.4255 132.626 49.3958C132.585 49.3621 132.543 49.312 132.495 49.2378C132.432 49.1319 132.358 49.0515 132.278 48.9962C132.197 48.9409 132.073 48.9177 131.901 48.9312C131.745 48.9433 131.622 48.9858 131.531 49.0627C131.439 49.1355 131.395 49.221 131.403 49.3148C131.407 49.372 131.428 49.4237 131.465 49.4618C131.502 49.5041 131.547 49.5335 131.608 49.5615C131.669 49.5855 131.73 49.6054 131.79 49.6212C131.85 49.6329 131.949 49.6498 132.086 49.672C132.257 49.6996 132.415 49.7283 132.557 49.7624C132.696 49.8008 132.818 49.8488 132.919 49.9065C133.021 49.9642 133.103 50.044 133.166 50.1417C133.229 50.2394 133.263 50.3598 133.275 50.5067Z" fill="black"/>
<path fill-rule="evenodd" clip-rule="evenodd" d="M131.499 48.3878L131.958 51.72C131.982 51.8957 132.144 52.0188 132.32 51.9947C132.496 51.9707 132.619 51.8084 132.596 51.6327L132.138 48.3004C132.114 48.1247 131.951 48.0016 131.775 48.0257C131.599 48.0498 131.476 48.212 131.499 48.3878Z" fill="black"/>
<path fill-rule="evenodd" clip-rule="evenodd" d="M112.654 43.4396L113.022 45.5757C113.052 45.7505 113.219 45.8679 113.394 45.8379C113.569 45.8078 113.687 45.6414 113.656 45.4666L113.288 43.3307C113.258 43.1558 113.092 43.0383 112.917 43.0684C112.742 43.0985 112.624 43.2648 112.654 43.4396Z" fill="black"/>
<path fill-rule="evenodd" clip-rule="evenodd" d="M114.694 54.371L115.062 56.5071C115.092 56.6819 115.259 56.7993 115.434 56.7693C115.609 56.7392 115.727 56.5729 115.696 56.398L115.328 54.2621C115.298 54.0872 115.131 53.9697 114.956 53.9998C114.782 54.0299 114.663 54.1962 114.694 54.371Z" fill="black"/>
<path fill-rule="evenodd" clip-rule="evenodd" d="M120.056 48.9415C120.154 48.9273 120.237 49.0081 120.316 49.1077C120.448 49.271 120.545 49.5102 120.584 49.7826C120.624 50.0551 120.599 50.3118 120.519 50.5059C120.472 50.6238 120.416 50.7247 120.317 50.7389C120.141 50.7644 120.02 50.9276 120.045 51.1031C120.071 51.2786 120.234 51.4005 120.41 51.375C120.658 51.3391 120.878 51.1823 121.03 50.9236C121.205 50.6257 121.292 50.176 121.222 49.6903C121.151 49.2046 120.939 48.7983 120.687 48.5623C120.467 48.3575 120.212 48.2696 119.964 48.3055C119.788 48.331 119.666 48.4941 119.692 48.6697C119.717 48.8452 119.88 48.967 120.056 48.9415Z" fill="black"/>
<path fill-rule="evenodd" clip-rule="evenodd" d="M120.318 50.7417C120.22 50.7558 120.137 50.6751 120.058 50.5757C119.927 50.4121 119.83 50.173 119.79 49.9005C119.751 49.628 119.775 49.3713 119.854 49.1774C119.902 49.0594 119.959 48.9584 120.056 48.9443C120.232 48.9189 120.355 48.7557 120.329 48.5802C120.304 48.4046 120.14 48.2829 119.964 48.3083C119.716 48.3442 119.497 48.5009 119.344 48.7596C119.169 49.0576 119.082 49.507 119.153 49.9928C119.224 50.4785 119.435 50.8849 119.688 51.1209C119.908 51.3256 120.162 51.4137 120.41 51.3778C120.586 51.3523 120.709 51.1891 120.683 51.0136C120.658 50.8381 120.494 50.7162 120.318 50.7417Z" fill="black"/>
<path fill-rule="evenodd" clip-rule="evenodd" d="M120.933 54.5858C121.031 54.5715 121.114 54.6523 121.193 54.7519C121.325 54.9152 121.422 55.1544 121.461 55.4268C121.501 55.6994 121.476 55.956 121.396 56.1501C121.349 56.268 121.293 56.3689 121.194 56.3831C121.018 56.4086 120.897 56.5718 120.922 56.7473C120.948 56.9228 121.111 57.0447 121.287 57.0192C121.535 56.9833 121.755 56.8265 121.907 56.5678C122.082 56.2699 122.169 55.8202 122.099 55.3345C122.028 54.8488 121.816 54.4426 121.564 54.2065C121.344 54.0017 121.089 53.9138 120.841 53.9498C120.665 53.9752 120.543 54.1383 120.569 54.3139C120.594 54.4894 120.757 54.6112 120.933 54.5858Z" fill="black"/>
<path fill-rule="evenodd" clip-rule="evenodd" d="M121.194 56.3861C121.097 56.4002 121.014 56.3195 120.934 56.22C120.803 56.0564 120.707 55.8174 120.667 55.5448C120.627 55.2724 120.652 55.0156 120.731 54.8218C120.779 54.7038 120.836 54.6028 120.933 54.5887C121.109 54.5632 121.231 54.4 121.206 54.2245C121.18 54.0489 121.017 53.9272 120.841 53.9527C120.593 53.9886 120.374 54.1452 120.221 54.4039C120.046 54.7019 119.959 55.1514 120.03 55.6371C120.1 56.1228 120.311 56.5293 120.564 56.7652C120.784 56.97 121.039 57.0581 121.287 57.0222C121.463 56.9967 121.585 56.8334 121.56 56.6579C121.534 56.4824 121.37 56.3606 121.194 56.3861Z" fill="black"/>
<path fill-rule="evenodd" clip-rule="evenodd" d="M127.214 54.585C127.312 54.5708 127.394 54.6516 127.474 54.7512C127.605 54.9146 127.702 55.1537 127.742 55.4262C127.782 55.6987 127.757 55.9554 127.677 56.1495C127.629 56.2674 127.573 56.3683 127.475 56.3825C127.299 56.408 127.177 56.5712 127.203 56.7467C127.228 56.9222 127.391 57.0441 127.567 57.0186C127.815 56.9827 128.035 56.8259 128.188 56.5672C128.362 56.2693 128.45 55.8196 128.379 55.3338C128.309 54.8481 128.097 54.4419 127.844 54.2058C127.625 54.001 127.369 53.9131 127.121 53.949C126.945 53.9745 126.824 54.1376 126.849 54.3132C126.875 54.4887 127.038 54.6105 127.214 54.585Z" fill="black"/>
<path fill-rule="evenodd" clip-rule="evenodd" d="M127.475 56.3853C127.378 56.3994 127.294 56.3187 127.215 56.2192C127.084 56.0556 126.987 55.8166 126.947 55.5441C126.908 55.2716 126.933 55.0149 127.011 54.821C127.059 54.703 127.116 54.602 127.214 54.5879C127.39 54.5625 127.512 54.3993 127.486 54.2238C127.461 54.0482 127.297 53.9265 127.121 53.952C126.873 53.9879 126.654 54.1445 126.502 54.4032C126.326 54.7012 126.239 55.1506 126.31 55.6363C126.381 56.122 126.592 56.5285 126.845 56.7644C127.065 56.9692 127.319 57.0573 127.568 57.0213C127.743 56.9959 127.866 56.8326 127.84 56.6571C127.815 56.4816 127.651 56.3598 127.475 56.3853Z" fill="black"/>
<path d="M120.183 12.361L107.675 7.19708L100.492 22.9075L113 28.0714L120.183 12.361Z" fill="#DD6140"/>
<path d="M118.381 13.5341L108.05 9.2691L107.116 11.3113L117.447 15.5763L118.381 13.5341Z" fill="white"/>
<path fill-rule="evenodd" clip-rule="evenodd" d="M107.672 13.1363C108.107 13.3244 108.316 13.8153 108.135 14.2341C107.953 14.6529 107.451 14.8365 107.016 14.6484L106.888 14.9433C107.489 15.203 108.179 14.9402 108.43 14.3616C108.681 13.7831 108.401 13.1011 107.8 12.8414L107.672 13.1363Z" fill="white"/>
<path fill-rule="evenodd" clip-rule="evenodd" d="M107.012 14.6537C106.576 14.4656 106.367 13.9747 106.549 13.5559C106.73 13.1371 107.232 12.9535 107.667 13.1416L107.795 12.8468C107.193 12.5867 106.504 12.8495 106.253 13.428C106.002 14.0065 106.282 14.6885 106.884 14.9486L107.012 14.6537Z" fill="white"/>
<path fill-rule="evenodd" clip-rule="evenodd" d="M106.58 15.6727C107.016 15.8609 107.225 16.3517 107.043 16.7705C106.862 17.1893 106.36 17.3729 105.925 17.1848L105.797 17.4796C106.398 17.7393 107.088 17.4765 107.338 16.898C107.589 16.3195 107.309 15.6375 106.708 15.3779L106.58 15.6727Z" fill="white"/>
<path fill-rule="evenodd" clip-rule="evenodd" d="M105.92 17.19C105.485 17.0019 105.275 16.5111 105.457 16.0923C105.639 15.6735 106.14 15.4899 106.576 15.678L106.704 15.3831C106.102 15.123 105.412 15.3858 105.161 15.9643C104.91 16.5428 105.19 17.2248 105.792 17.4849L105.92 17.19Z" fill="white"/>
<path fill-rule="evenodd" clip-rule="evenodd" d="M105.471 18.2091C105.906 18.3972 106.116 18.8881 105.934 19.3068C105.752 19.7256 105.251 19.9092 104.815 19.7211L104.687 20.016C105.288 20.2757 105.978 20.0129 106.229 19.4344C106.48 18.8559 106.2 18.1739 105.599 17.9142L105.471 18.2091Z" fill="white"/>
<path fill-rule="evenodd" clip-rule="evenodd" d="M104.811 19.7264C104.375 19.5383 104.166 19.0474 104.348 18.6286C104.529 18.2098 105.031 18.0262 105.466 18.2143L105.594 17.9195C104.992 17.6594 104.303 17.9222 104.052 18.5007C103.801 19.0792 104.081 19.7612 104.683 20.0213L104.811 19.7264Z" fill="white"/>
<path fill-rule="evenodd" clip-rule="evenodd" d="M104.379 20.7454C104.815 20.9336 105.024 21.4244 104.842 21.8432C104.661 22.262 104.159 22.4456 103.724 22.2575L103.596 22.5524C104.197 22.8121 104.887 22.5492 105.138 21.9707C105.388 21.3922 105.108 20.7102 104.507 20.4506L104.379 20.7454Z" fill="white"/>
<path fill-rule="evenodd" clip-rule="evenodd" d="M103.719 22.2629C103.284 22.0747 103.075 21.5839 103.256 21.1651C103.438 20.7463 103.94 20.5627 104.375 20.7508L104.503 20.4559C103.901 20.1958 103.211 20.4586 102.96 21.0371C102.71 21.6156 102.99 22.2976 103.592 22.5578L103.719 22.2629Z" fill="white"/>
<path fill-rule="evenodd" clip-rule="evenodd" d="M110.231 14.2438C110.666 14.4319 110.875 14.9227 110.694 15.3415C110.512 15.7603 110.01 15.9439 109.575 15.7558L109.447 16.0507C110.048 16.3103 110.738 16.0475 110.989 15.469C111.24 14.8905 110.96 14.2086 110.359 13.9489L110.231 14.2438Z" fill="white"/>
<path fill-rule="evenodd" clip-rule="evenodd" d="M109.57 15.761C109.135 15.5729 108.926 15.082 109.107 14.6633C109.289 14.2445 109.791 14.0608 110.226 14.249L110.354 13.9541C109.752 13.694 109.062 13.9568 108.811 14.5353C108.561 15.1138 108.841 15.7958 109.443 16.0559L109.57 15.761Z" fill="white"/>
<path fill-rule="evenodd" clip-rule="evenodd" d="M109.139 16.7802C109.575 16.9683 109.784 17.4591 109.602 17.8779C109.421 18.2967 108.919 18.4804 108.484 18.2922L108.356 18.5871C108.957 18.8468 109.646 18.584 109.897 18.0055C110.148 17.427 109.868 16.745 109.267 16.4853L109.139 16.7802Z" fill="white"/>
<path fill-rule="evenodd" clip-rule="evenodd" d="M108.479 18.2974C108.043 18.1093 107.834 17.6185 108.016 17.1997C108.197 16.7809 108.699 16.5973 109.134 16.7854L109.262 16.4905C108.66 16.2305 107.971 16.4933 107.72 17.0718C107.469 17.6502 107.749 18.3322 108.351 18.5923L108.479 18.2974Z" fill="white"/>
<path fill-rule="evenodd" clip-rule="evenodd" d="M108.048 19.3165C108.483 19.5047 108.692 19.9955 108.511 20.4143C108.329 20.8331 107.827 21.0167 107.392 20.8286L107.264 21.1235C107.865 21.3832 108.555 21.1203 108.806 20.5418C109.057 19.9633 108.776 19.2813 108.176 19.0217L108.048 19.3165Z" fill="white"/>
<path fill-rule="evenodd" clip-rule="evenodd" d="M107.387 20.8339C106.952 20.6457 106.743 20.1549 106.924 19.7361C107.106 19.3173 107.608 19.1337 108.043 19.3218L108.171 19.0269C107.569 18.7668 106.879 19.0297 106.628 19.6082C106.378 20.1867 106.658 20.8687 107.26 21.1288L107.387 20.8339Z" fill="white"/>
<path fill-rule="evenodd" clip-rule="evenodd" d="M106.938 21.8529C107.374 22.041 107.583 22.5318 107.401 22.9506C107.22 23.3694 106.718 23.5531 106.283 23.3649L106.155 23.6598C106.756 23.9195 107.446 23.6567 107.696 23.0782C107.947 22.4996 107.667 21.8177 107.066 21.558L106.938 21.8529Z" fill="white"/>
<path fill-rule="evenodd" clip-rule="evenodd" d="M106.278 23.3702C105.843 23.1821 105.634 22.6913 105.815 22.2725C105.997 21.8537 106.498 21.6701 106.934 21.8582L107.062 21.5633C106.46 21.3032 105.77 21.566 105.519 22.1445C105.268 22.723 105.548 23.405 106.15 23.6651L106.278 23.3702Z" fill="white"/>
<path fill-rule="evenodd" clip-rule="evenodd" d="M112.807 15.3512C113.243 15.5393 113.452 16.0302 113.27 16.449C113.089 16.8677 112.587 17.0514 112.152 16.8632L112.024 17.1581C112.625 17.4178 113.315 17.155 113.565 16.5765C113.816 15.998 113.536 15.316 112.935 15.0563L112.807 15.3512Z" fill="white"/>
<path fill-rule="evenodd" clip-rule="evenodd" d="M112.147 16.8685C111.712 16.6804 111.503 16.1895 111.684 15.7707C111.866 15.352 112.367 15.1683 112.803 15.3565L112.931 15.0616C112.329 14.8015 111.639 15.0643 111.388 15.6428C111.137 16.2213 111.417 16.9033 112.019 17.1633L112.147 16.8685Z" fill="white"/>
<path fill-rule="evenodd" clip-rule="evenodd" d="M111.698 17.8875C112.133 18.0757 112.343 18.5665 112.161 18.9853C111.979 19.4041 111.478 19.5877 111.042 19.3996L110.914 19.6945C111.515 19.9542 112.205 19.6913 112.456 19.1128C112.707 18.5343 112.427 17.8523 111.826 17.5927L111.698 17.8875Z" fill="white"/>
<path fill-rule="evenodd" clip-rule="evenodd" d="M111.038 19.4048C110.602 19.2167 110.393 18.7258 110.575 18.307C110.756 17.8883 111.258 17.7046 111.693 17.8927L111.821 17.5979C111.219 17.3378 110.53 17.6006 110.279 18.1791C110.028 18.7576 110.308 19.4396 110.91 19.6997L111.038 19.4048Z" fill="white"/>
<path fill-rule="evenodd" clip-rule="evenodd" d="M110.606 20.4239C111.042 20.612 111.251 21.1029 111.069 21.5217C110.888 21.9405 110.386 22.1241 109.951 21.936L109.823 22.2309C110.424 22.4906 111.113 22.2277 111.364 21.6492C111.615 21.0707 111.335 20.3887 110.734 20.129L110.606 20.4239Z" fill="white"/>
<path fill-rule="evenodd" clip-rule="evenodd" d="M109.946 21.9412C109.511 21.7531 109.302 21.2622 109.483 20.8434C109.665 20.4246 110.167 20.241 110.602 20.4291L110.73 20.1342C110.128 19.8741 109.438 20.137 109.187 20.7155C108.936 21.294 109.216 21.976 109.818 22.2361L109.946 21.9412Z" fill="white"/>
<path fill-rule="evenodd" clip-rule="evenodd" d="M109.515 22.9603C109.95 23.1484 110.159 23.6392 109.978 24.058C109.796 24.4768 109.294 24.6604 108.859 24.4723L108.731 24.7672C109.332 25.0268 110.022 24.764 110.273 24.1855C110.524 23.607 110.243 22.9251 109.643 22.6654L109.515 22.9603Z" fill="white"/>
<path fill-rule="evenodd" clip-rule="evenodd" d="M108.855 24.4777C108.419 24.2895 108.21 23.7987 108.392 23.3799C108.573 22.9611 109.075 22.7775 109.511 22.9656L109.638 22.6707C109.036 22.4106 108.347 22.6734 108.096 23.252C107.845 23.8305 108.125 24.5125 108.727 24.7726L108.855 24.4777Z" fill="white"/>
<path fill-rule="evenodd" clip-rule="evenodd" d="M115.366 16.4586C115.801 16.6467 116.011 17.1376 115.829 17.5563C115.647 17.9751 115.146 18.1587 114.71 17.9706L114.582 18.2655C115.183 18.5251 115.873 18.2623 116.124 17.6838C116.375 17.1054 116.095 16.4234 115.494 16.1638L115.366 16.4586Z" fill="white"/>
<path fill-rule="evenodd" clip-rule="evenodd" d="M114.706 17.976C114.271 17.7879 114.061 17.297 114.243 16.8783C114.424 16.4595 114.926 16.2758 115.362 16.464L115.489 16.1691C114.888 15.909 114.198 16.1718 113.947 16.7503C113.696 17.3288 113.976 18.0108 114.578 18.2709L114.706 17.976Z" fill="white"/>
<path fill-rule="evenodd" clip-rule="evenodd" d="M114.274 18.995C114.71 19.1831 114.919 19.674 114.737 20.0928C114.556 20.5116 114.054 20.6952 113.619 20.5071L113.491 20.8019C114.092 21.0616 114.782 20.7988 115.033 20.2203C115.283 19.6418 115.003 18.9598 114.402 18.7001L114.274 18.995Z" fill="white"/>
<path fill-rule="evenodd" clip-rule="evenodd" d="M113.615 20.5124C113.179 20.3242 112.97 19.8334 113.152 19.4146C113.333 18.9958 113.835 18.8122 114.27 19.0003L114.398 18.7054C113.796 18.4453 113.106 18.7081 112.855 19.2866C112.605 19.8651 112.885 20.5471 113.487 20.8072L113.615 20.5124Z" fill="white"/>
<path fill-rule="evenodd" clip-rule="evenodd" d="M113.165 21.5314C113.6 21.7196 113.81 22.2104 113.628 22.6292C113.447 23.0479 112.945 23.2316 112.509 23.0435L112.382 23.3383C112.982 23.598 113.672 23.3352 113.923 22.7567C114.174 22.1782 113.894 21.4962 113.293 21.2366L113.165 21.5314Z" fill="white"/>
<path fill-rule="evenodd" clip-rule="evenodd" d="M112.505 23.0487C112.07 22.8606 111.861 22.3697 112.042 21.951C112.224 21.5322 112.725 21.3486 113.161 21.5367L113.289 21.2418C112.687 20.9817 111.997 21.2445 111.746 21.823C111.495 22.4015 111.775 23.0835 112.377 23.3436L112.505 23.0487Z" fill="white"/>
<path fill-rule="evenodd" clip-rule="evenodd" d="M112.074 24.0677C112.509 24.2558 112.718 24.7467 112.537 25.1655C112.355 25.5843 111.853 25.7679 111.418 25.5798L111.29 25.8747C111.891 26.1343 112.581 25.8715 112.832 25.293C113.083 24.7145 112.802 24.0325 112.202 23.7728L112.074 24.0677Z" fill="white"/>
<path fill-rule="evenodd" clip-rule="evenodd" d="M111.413 25.5851C110.978 25.397 110.769 24.9061 110.95 24.4873C111.132 24.0685 111.634 23.8849 112.069 24.073L112.197 23.7782C111.595 23.5181 110.905 23.7809 110.654 24.3594C110.404 24.9379 110.684 25.6199 111.286 25.88L111.413 25.5851Z" fill="white"/>
<path d="M187.42 70.0351H43.5798V74.1H187.42V70.0351Z" fill="black"/>
<path fill-rule="evenodd" clip-rule="evenodd" d="M146.599 67.8727H148.433V67.1057H151.296V67.8727H153.248V67.1057H156.111V67.8727H158.064V67.1057H160.927V67.8727H161.536C161.816 67.8727 162.084 67.9841 162.283 68.1823C162.48 68.3794 162.592 68.6471 162.592 68.9267V69.9958H141.851C141.851 69.9958 141.851 69.4602 141.851 68.9267C141.851 68.6471 141.963 68.3794 142.16 68.1823C142.359 67.9841 142.627 67.8727 142.907 67.8727H143.736V67.1057H146.599V67.8727Z" fill="#D2D3D5"/>
<path d="M75.631 67.4629H50.4512V70.3311H75.631V67.4629Z" fill="white"/>
<path fill-rule="evenodd" clip-rule="evenodd" d="M64.0727 66.9628V67.8197H51.023V69.6633H64.0727V70.5203H50.5938C50.3567 70.5203 50.1646 70.3285 50.1646 70.0918V67.3913C50.1646 67.1545 50.3567 66.9628 50.5938 66.9628H64.0727Z" fill="black"/>
<path fill-rule="evenodd" clip-rule="evenodd" d="M64.0809 66.9628H76.0044C76.2416 66.9628 76.4337 67.1545 76.4337 67.3913V70.0918C76.4337 70.3285 76.2416 70.5203 76.0044 70.5203H64.0809C63.6815 70.1003 63.8342 69.8658 64.0809 69.6633H75.5752V67.8197H64.0809C63.9182 67.5037 63.8783 67.2102 64.0809 66.9628Z" fill="black"/>
<path fill-rule="evenodd" clip-rule="evenodd" d="M65.6248 67.5371L65.695 70.2279C65.7012 70.4647 65.8984 70.6511 66.1353 70.6457C66.3721 70.6393 66.5593 70.4422 66.5532 70.2054L66.4829 67.5146C66.4767 67.279 66.2795 67.0915 66.0427 67.0979C65.8058 67.1044 65.6186 67.3015 65.6248 67.5371ZM71.0144 66.2838V70.063C71.0144 70.2997 71.2067 70.4914 71.4436 70.4914C71.6804 70.4914 71.8729 70.2997 71.8729 70.063V66.2838C71.8729 66.0471 71.6804 65.8553 71.4436 65.8553C71.2067 65.8553 71.0144 66.0471 71.0144 66.2838ZM68.3693 66.346V69.8198C68.3693 70.0565 68.5616 70.2483 68.7986 70.2483C69.0355 70.2483 69.2278 70.0565 69.2278 69.8198V66.346C69.2278 66.1092 69.0355 65.9175 68.7986 65.9175C68.5616 65.9175 68.3693 66.1092 68.3693 66.346ZM73.5372 66.3213V69.7288C73.5372 69.9644 73.7293 70.1572 73.9665 70.1572C74.2036 70.1572 74.3957 69.9644 74.3957 69.7288V66.3213C74.3957 66.0857 74.2036 65.8928 73.9665 65.8928C73.7293 65.8928 73.5372 66.0857 73.5372 66.3213Z" fill="black"/>
<path fill-rule="evenodd" clip-rule="evenodd" d="M81.8536 47.094H81.0939C80.6711 47.094 80.3277 46.7512 80.3277 46.3292C80.3277 45.907 80.6711 45.5643 81.0939 45.5643H100.15C100.574 45.5643 100.916 45.907 100.916 46.3292C100.916 46.7512 100.574 47.094 100.15 47.094H99.7956C100.181 47.2292 100.536 47.4497 100.83 47.744C101.347 48.2596 101.637 48.9588 101.637 49.6879V70.0038H80.0111C80.0111 70.0038 80.0111 55.8046 80.0111 49.6879C80.0111 48.9588 80.3019 48.2596 80.8181 47.744C81.1132 47.4497 81.4673 47.2292 81.8536 47.094Z" fill="#FFF4E5"/>
<path fill-rule="evenodd" clip-rule="evenodd" d="M99.7874 47.1005C100.062 47.1967 100.321 47.3364 100.554 47.5149L80.4944 48.1276C80.5877 47.9936 80.6929 47.8673 80.8099 47.7505C81.105 47.4562 81.4591 47.2357 81.8454 47.1005H99.7874Z" fill="#F4978B"/>
<path d="M87.6269 50.6364L80.6553 52.7448L84.3199 64.8079L91.2916 62.6995L87.6269 50.6364Z" fill="#F4978B"/>
<path fill-rule="evenodd" clip-rule="evenodd" d="M86.0947 56.4589C86.9124 56.4589 87.5766 57.1219 87.5766 57.9386C87.5766 58.7553 86.9124 59.4182 86.0947 59.4182C85.9166 59.4182 85.7728 59.5622 85.7728 59.7396C85.7728 59.917 85.9166 60.0609 86.0947 60.0609C87.2676 60.0609 88.2205 59.1099 88.2205 57.9386C88.2205 56.7673 87.2676 55.8162 86.0947 55.8162C85.9166 55.8162 85.7728 55.9602 85.7728 56.1375C85.7728 56.3149 85.9166 56.4589 86.0947 56.4589Z" fill="#DE6647"/>
<path fill-rule="evenodd" clip-rule="evenodd" d="M86.0914 59.4182C85.2726 59.4182 84.6094 58.7553 84.6094 57.9386C84.6094 57.1219 85.2726 56.4589 86.0914 56.4589C86.2684 56.4589 86.4133 56.3149 86.4133 56.1375C86.4133 55.9602 86.2684 55.8162 86.0914 55.8162C84.9174 55.8162 83.9656 56.7673 83.9656 57.9386C83.9656 59.1099 84.9174 60.0609 86.0914 60.0609C86.2684 60.0609 86.4133 59.917 86.4133 59.7396C86.4133 59.5622 86.2684 59.4182 86.0914 59.4182Z" fill="#DE6647"/>
<path fill-rule="evenodd" clip-rule="evenodd" d="M86.7736 64.0827L86.2177 62.3843C86.1447 62.1596 86.2682 61.9175 86.4924 61.8441C86.7178 61.7707 86.9603 61.8936 87.0343 62.1184L87.5956 63.8341L86.7736 64.0827ZM87.9293 63.7329L87.5548 62.5243C87.4851 62.2984 87.6117 62.0582 87.8381 61.9883C88.0645 61.9184 88.3049 62.045 88.3746 62.271L88.7513 63.4843L87.9293 63.7329ZM85.2015 51.3865L85.8078 53.3429C85.8775 53.5688 85.7509 53.809 85.5245 53.8788C85.2981 53.9488 85.0577 53.822 84.9879 53.5961L84.3795 51.6351L85.2015 51.3865ZM83.8569 51.7932L84.3666 53.2765C84.4439 53.5001 84.3237 53.7441 84.0994 53.8208C83.8751 53.8975 83.6316 53.7781 83.5543 53.5544L83.0349 52.0419L83.8569 51.7932Z" fill="#DE6647"/>
<path d="M101.309 57.6614L94.2717 55.7822L91.0098 67.9599L98.0469 69.8391L101.309 57.6614Z" fill="#F4978B"/>
<path fill-rule="evenodd" clip-rule="evenodd" d="M96.9259 61.8195C97.6206 62.2501 97.8345 63.1632 97.403 63.857C96.9715 64.5508 96.0568 64.7643 95.3622 64.3337C95.2108 64.2399 95.0126 64.2865 94.9189 64.4372C94.8251 64.5879 94.8712 64.786 95.0225 64.8798C96.019 65.4973 97.331 65.1911 97.95 64.196C98.5689 63.2009 98.262 61.8911 97.2656 61.2735C97.1142 61.1797 96.9159 61.2264 96.8223 61.377C96.7285 61.5277 96.7746 61.7257 96.9259 61.8195Z" fill="#DE6647"/>
<path fill-rule="evenodd" clip-rule="evenodd" d="M95.356 64.3191C94.6604 63.888 94.4473 62.9755 94.8788 62.2817C95.3104 61.5879 96.2242 61.3738 96.9198 61.8049C97.0702 61.8981 97.2693 61.8521 97.3631 61.7014C97.4567 61.5508 97.4098 61.3521 97.2594 61.2589C96.262 60.6407 94.9508 60.9476 94.3318 61.9427C93.7128 62.9378 94.019 64.247 95.0163 64.8651C95.1668 64.9584 95.3659 64.9123 95.4596 64.7616C95.5534 64.6109 95.5064 64.4123 95.356 64.3191Z" fill="#DE6647"/>
<path fill-rule="evenodd" clip-rule="evenodd" d="M93.4773 68.6431L93.9025 66.9075C93.9593 66.6782 94.1921 66.5375 94.4214 66.5932C94.6516 66.6496 94.7927 66.8816 94.7368 67.1116L94.307 68.8647L93.4773 68.6431ZM94.644 68.9545L94.9645 67.7305C95.0246 67.5019 95.2591 67.3645 95.4884 67.4243C95.7177 67.4842 95.855 67.7183 95.7949 67.947L95.4737 69.1761L94.644 68.9545ZM98.8506 57.0291L98.3319 59.0105C98.2718 59.2391 98.0373 59.3765 97.8081 59.3166C97.5787 59.2568 97.4415 59.0226 97.5016 58.7939L98.0209 56.8075L98.8506 57.0291ZM97.4934 56.6667L97.1427 58.1952C97.0901 58.4259 96.8591 58.5698 96.628 58.5169C96.397 58.464 96.2531 58.2343 96.3057 58.0035L96.6637 56.4452L97.4934 56.6667Z" fill="#DE6647"/>
<path d="M94.5097 54.5404C95.9452 54.5404 97.1089 53.3787 97.1089 51.9457C97.1089 50.5127 95.9452 49.3511 94.5097 49.3511C93.0741 49.3511 91.9104 50.5127 91.9104 51.9457C91.9104 53.3787 93.0741 54.5404 94.5097 54.5404Z" fill="#FFCF84"/>
<path fill-rule="evenodd" clip-rule="evenodd" d="M94.5442 50.2849C95.4835 50.2849 96.2465 51.0468 96.2465 51.9851C96.2465 52.9236 95.4835 53.6855 94.5442 53.6855C94.4539 53.6855 94.3795 53.7587 94.3795 53.8488C94.3795 53.9389 94.4539 54.0121 94.5442 54.0121C95.6642 54.0121 96.5737 53.1038 96.5737 51.9851C96.5737 50.8665 95.6642 49.9583 94.5442 49.9583C94.4539 49.9583 94.3795 50.0315 94.3795 50.1216C94.3795 50.2117 94.4539 50.2849 94.5442 50.2849Z" fill="#FDA92F"/>
<path fill-rule="evenodd" clip-rule="evenodd" d="M94.5496 53.6854C93.6092 53.6854 92.8462 52.9235 92.8462 51.985C92.8462 51.0466 93.6092 50.2848 94.5496 50.2848C94.6388 50.2848 94.712 50.2116 94.712 50.1215C94.712 50.0314 94.6388 49.9582 94.5496 49.9582C93.4285 49.9582 92.519 50.8664 92.519 51.985C92.519 53.1037 93.4285 54.012 94.5496 54.012C94.6388 54.012 94.712 53.9388 94.712 53.8487C94.712 53.7586 94.6388 53.6854 94.5496 53.6854Z" fill="#FDA92F"/>
<path fill-rule="evenodd" clip-rule="evenodd" d="M94.0495 54.5021L94.0731 53.8816C94.0763 53.7916 94.1525 53.7213 94.2427 53.7248C94.3339 53.7283 94.4036 53.8042 94.4004 53.8943L94.3757 54.53C94.2652 54.5275 94.1557 54.518 94.0495 54.5021ZM95.0013 54.4691L94.8414 53.8353C94.82 53.7479 94.8726 53.659 94.9605 53.6371C95.0475 53.6151 95.1365 53.6683 95.1591 53.7556L95.3157 54.3781C95.2138 54.4149 95.1086 54.4453 95.0013 54.4691ZM92.2746 53.3765L92.7639 52.9907C92.8348 52.9348 92.9378 52.9469 92.9936 53.0176C93.0494 53.0883 93.0376 53.1911 92.9667 53.247L92.4731 53.636C92.4023 53.5539 92.3358 53.4672 92.2746 53.3765ZM91.9441 52.6752L92.5557 52.3443C92.6352 52.3013 92.735 52.3308 92.7779 52.4101C92.8208 52.4892 92.7908 52.5884 92.7114 52.6314L92.0589 52.9847C92.0138 52.8847 91.9763 52.7813 91.9441 52.6752ZM97.0069 52.3192L96.4167 52.2919C96.3266 52.2877 96.2568 52.2112 96.2611 52.1213C96.2654 52.0312 96.3416 51.9615 96.4317 51.9656L97.0348 51.9936C97.0327 52.1039 97.023 52.2125 97.0069 52.3192ZM96.2547 50.0829C96.333 50.1593 96.406 50.2405 96.4747 50.3262L95.995 50.8178C95.9317 50.8824 95.8287 50.8839 95.7643 50.8211C95.6988 50.7582 95.6978 50.6547 95.7611 50.5901L96.2547 50.0829ZM93.1417 49.6864L93.5666 50.3199C93.617 50.3947 93.5966 50.4962 93.5215 50.5464C93.4464 50.5965 93.3445 50.5765 93.2951 50.5016L92.8691 49.8668C92.9549 49.8012 93.0462 49.7409 93.1417 49.6864ZM94.6622 49.3511C94.7717 49.3605 94.8801 49.3768 94.9863 49.3996L94.9219 50.0479C94.9123 50.1376 94.8318 50.2032 94.7427 50.1942C94.6526 50.1853 94.5871 50.1053 94.5957 50.0156L94.6622 49.3511Z" fill="#FDA92F"/>
<path d="M87.4708 57.3776C87.3079 58.8013 88.332 60.0873 89.7583 60.2499C91.1846 60.4125 92.4729 59.3901 92.6357 57.9664C92.7986 56.5427 91.7744 55.2567 90.3482 55.0941C88.9219 54.9315 87.6336 55.9539 87.4708 57.3776Z" fill="#FFCF84"/>
<path fill-rule="evenodd" clip-rule="evenodd" d="M91.6919 57.9082C91.5853 58.8396 90.7405 59.51 89.8066 59.4035C88.8725 59.297 88.2009 58.4538 88.3074 57.5224C88.3177 57.4327 88.2533 57.3507 88.1636 57.3405C88.0739 57.3302 87.9926 57.3957 87.9824 57.4853C87.8553 58.596 88.6561 59.6011 89.7695 59.728C90.8828 59.8549 91.8899 59.056 92.017 57.9452C92.0272 57.8556 91.9628 57.7736 91.8731 57.7633C91.7834 57.7531 91.7021 57.8185 91.6919 57.9082Z" fill="#FDA92F"/>
<path fill-rule="evenodd" clip-rule="evenodd" d="M88.3105 57.5153C88.4172 56.5826 89.262 55.9123 90.196 56.0188C91.13 56.1253 91.8016 56.9685 91.6949 57.9011C91.6848 57.9896 91.7493 58.0705 91.839 58.0808C91.9287 58.091 92.0099 58.0267 92.02 57.9382C92.1472 56.8263 91.3464 55.8212 90.2332 55.6943C89.1198 55.5673 88.1126 56.3663 87.9854 57.4782C87.9753 57.5667 88.0399 57.6476 88.1295 57.6579C88.2192 57.6681 88.3004 57.6038 88.3105 57.5153Z" fill="#FDA92F"/>
<path fill-rule="evenodd" clip-rule="evenodd" d="M87.5591 56.9254L88.1739 57.0193C88.2632 57.0327 88.3245 57.1162 88.3108 57.2052C88.297 57.2953 88.2135 57.3558 88.1242 57.3424L87.4943 57.2458C87.5094 57.1365 87.5312 57.029 87.5591 56.9254ZM87.484 57.8732L88.1329 57.7865C88.2224 57.7752 88.3048 57.8374 88.3167 57.9272C88.3287 58.0159 88.2657 58.0982 88.1762 58.1106L87.5388 58.1954C87.5138 58.0901 87.4954 57.9823 87.484 57.8732ZM88.8808 55.2929L89.2092 55.8219C89.2568 55.8985 89.2331 55.9993 89.1564 56.0466C89.0797 56.094 88.9788 56.0706 88.9312 55.994L88.5999 55.4603C88.6898 55.3994 88.7836 55.3432 88.8808 55.2929ZM89.6163 55.0446L89.8763 55.6888C89.91 55.7724 89.8693 55.8681 89.7856 55.9017C89.7019 55.9353 89.6066 55.8942 89.5729 55.8106L89.2952 55.1234C89.3999 55.09 89.507 55.0645 89.6163 55.0446ZM89.3962 60.1063L89.4903 59.524C89.5047 59.4351 89.5887 59.3746 89.6778 59.3891C89.767 59.4035 89.8276 59.487 89.8134 59.5759L89.7171 60.1709C89.6075 60.1562 89.5005 60.1343 89.3962 60.1063ZM91.7073 59.614C91.6224 59.683 91.5333 59.7461 91.4402 59.8045L91.0053 59.273C90.9482 59.2029 90.9584 59.1005 91.0283 59.0438C91.0983 58.986 91.2014 58.9967 91.2585 59.0668L91.7073 59.614ZM92.4552 56.5715L91.7765 56.9211C91.6962 56.9626 91.5976 56.9309 91.5561 56.8507C91.5147 56.7705 91.5462 56.6716 91.6264 56.6312L92.3065 56.2807C92.3621 56.3733 92.4118 56.4706 92.4552 56.5715ZM92.6164 58.1176C92.5946 58.2251 92.5661 58.3307 92.5313 58.4335L91.8934 58.2961C91.8052 58.2763 91.749 58.1891 91.7681 58.1018C91.7872 58.0134 91.8742 57.9575 91.9625 57.9762L92.6164 58.1176Z" fill="#FDA92F"/>
<path d="M82.6194 69.0302C83.6714 70.0052 85.316 69.9444 86.2928 68.8942C87.2696 67.8441 87.2086 66.2024 86.1566 65.2273C85.1045 64.2523 83.4599 64.3132 82.4831 65.3634C81.5063 66.4135 81.5673 68.0552 82.6194 69.0302Z" fill="#FFCF84"/>
<path fill-rule="evenodd" clip-rule="evenodd" d="M85.5457 65.9565C86.234 66.5944 86.2739 67.6709 85.6343 68.3586C84.9946 69.0463 83.9162 69.0863 83.2279 68.4484C83.1616 68.387 83.0573 68.3902 82.9959 68.4562C82.9344 68.5222 82.939 68.6264 83.0053 68.6878C83.826 69.4485 85.1116 69.4006 85.8741 68.5808C86.6365 67.7611 86.5891 66.4778 85.7683 65.7171C85.7021 65.6557 85.5977 65.6589 85.5363 65.7249C85.4749 65.7909 85.4794 65.8951 85.5457 65.9565Z" fill="#FDA92F"/>
<path fill-rule="evenodd" clip-rule="evenodd" d="M83.2174 68.43C82.5283 67.7913 82.4884 66.7148 83.1281 66.0271C83.7677 65.3394 84.8461 65.2994 85.5352 65.9381C85.6006 65.9987 85.7042 65.9948 85.7656 65.9288C85.827 65.8627 85.8232 65.7594 85.7579 65.6988C84.9363 64.9373 83.6507 64.9851 82.8883 65.8048C82.1258 66.6246 82.1732 67.9079 82.9948 68.6694C83.0602 68.73 83.1638 68.7261 83.2252 68.6601C83.2866 68.594 83.2828 68.4907 83.2174 68.43Z" fill="#FDA92F"/>
<path fill-rule="evenodd" clip-rule="evenodd" d="M82.3059 68.6896L82.7461 68.251C82.8099 68.1871 82.9136 68.1874 82.9772 68.2512C83.0418 68.3157 83.0411 68.4187 82.9773 68.4825L82.5259 68.9317C82.4467 68.8547 82.3729 68.7735 82.3059 68.6896ZM83.0259 69.3119L83.3408 68.7388C83.3846 68.6602 83.4837 68.6308 83.5631 68.6745C83.6418 68.7175 83.6709 68.8169 83.6279 68.8962L83.3183 69.4588C83.2186 69.4165 83.1208 69.3674 83.0259 69.3119ZM81.7724 66.6592L82.394 66.7089C82.484 66.716 82.5512 66.7948 82.5439 66.8846C82.5366 66.9743 82.4579 67.0415 82.3679 67.0344L81.741 66.9842C81.7451 66.8759 81.7554 66.7672 81.7724 66.6592ZM82.0082 65.9208L82.682 66.0937C82.7695 66.1162 82.8226 66.2056 82.8 66.2928C82.7775 66.38 82.6879 66.4323 82.6004 66.4098L81.8814 66.2256C81.9165 66.1217 81.9595 66.0204 82.0082 65.9208ZM85.9611 69.0986L85.5472 68.6778C85.484 68.6135 85.485 68.51 85.5495 68.447C85.614 68.3839 85.7173 68.3846 85.7806 68.4488L86.2035 68.879C86.1267 68.9583 86.0456 69.0314 85.9611 69.0986ZM86.9342 66.9489C86.9395 67.058 86.9377 67.1671 86.9296 67.2765L86.2429 67.3111C86.1525 67.3154 86.076 67.2465 86.0716 67.1567C86.0665 67.0662 86.1363 66.9896 86.2267 66.9853L86.9342 66.9489ZM84.9231 64.5439L84.8027 65.2967C84.7887 65.3859 84.7046 65.4463 84.6153 65.4321C84.5261 65.4179 84.465 65.3339 84.4799 65.2455L84.6004 64.491C84.708 64.5012 84.816 64.5189 84.9231 64.5439ZM86.266 65.3309C86.3398 65.4122 86.4081 65.4977 86.4704 65.5866L85.9813 66.018C85.9131 66.0772 85.8094 66.0706 85.7503 66.0035C85.6903 65.9357 85.6969 65.8326 85.7643 65.7728L86.266 65.3309Z" fill="#FDA92F"/>
<path d="M98.8882 69.8617C100.298 69.5941 101.224 68.2359 100.956 66.8281C100.688 65.4203 99.3276 64.496 97.9173 64.7636C96.507 65.0312 95.5811 66.3894 95.8492 67.7972C96.1173 69.205 97.4779 70.1293 98.8882 69.8617Z" fill="#FFCF84"/>
<path fill-rule="evenodd" clip-rule="evenodd" d="M98.1275 65.6811C99.0502 65.5061 99.9423 66.1122 100.118 67.034C100.293 67.956 99.6863 68.8467 98.7636 69.0218C98.6749 69.0386 98.6155 69.1244 98.6324 69.2129C98.6492 69.3014 98.736 69.3595 98.8247 69.3426C99.925 69.1338 100.649 68.072 100.439 66.973C100.23 65.8742 99.1666 65.1515 98.0664 65.3603C97.9776 65.3771 97.9182 65.4629 97.9351 65.5514C97.9519 65.6399 98.0387 65.698 98.1275 65.6811Z" fill="#FDA92F"/>
<path fill-rule="evenodd" clip-rule="evenodd" d="M98.772 69.0313C97.8481 69.2066 96.956 68.6005 96.7804 67.6785C96.6049 66.7567 97.212 65.866 98.1358 65.6907C98.2235 65.6741 98.2817 65.5885 98.2648 65.5C98.248 65.4115 98.1624 65.3532 98.0747 65.3699C96.9733 65.5789 96.2497 66.6406 96.459 67.7395C96.6683 68.8385 97.7317 69.5612 98.8331 69.3522C98.9207 69.3355 98.979 69.25 98.9621 69.1614C98.9452 69.0729 98.8596 69.0147 98.772 69.0313Z" fill="#FDA92F"/>
<path fill-rule="evenodd" clip-rule="evenodd" d="M98.4294 69.916L98.3365 69.3021C98.3228 69.213 98.3845 69.1298 98.4737 69.1164C98.564 69.1028 98.6467 69.1644 98.6604 69.2535L98.7551 69.8827C98.646 69.9008 98.5367 69.9119 98.4294 69.916ZM99.3583 69.7062L99.0826 69.1133C99.0452 69.0314 99.0802 68.9344 99.1626 68.8964C99.2439 68.8586 99.3413 68.8942 99.3798 68.9758L99.6502 69.5582C99.5569 69.6133 99.4593 69.6628 99.3583 69.7062ZM96.4751 69.1411L96.8837 68.6709C96.9428 68.6028 97.0463 68.5955 97.1143 68.6546C97.1824 68.7136 97.19 68.8167 97.1309 68.8849L96.7187 69.3591C96.6338 69.2916 96.5522 69.2188 96.4751 69.1411ZM96.0192 68.5138L96.5582 68.0747C96.6282 68.0177 96.7318 68.028 96.7888 68.0979C96.8457 68.1676 96.8348 68.2707 96.7648 68.3277L96.1899 68.7965C96.1269 68.7066 96.0707 68.612 96.0192 68.5138ZM100.926 67.2203L100.341 67.3034C100.252 67.3161 100.169 67.254 100.157 67.1648C100.144 67.0755 100.206 66.9929 100.295 66.9801L100.893 66.8951C100.911 67.0039 100.922 67.1124 100.926 67.2203ZM99.769 65.1635C99.8603 65.224 99.9471 65.2901 100.031 65.3615L99.6514 65.9339C99.6013 66.0092 99.5004 66.0299 99.4253 65.9801C99.3493 65.9305 99.3289 65.8291 99.379 65.7538L99.769 65.1635ZM96.6366 65.3543L97.1725 65.8974C97.2361 65.9616 97.235 66.065 97.1707 66.1284C97.1062 66.1917 97.0023 66.191 96.9398 66.1266L96.4026 65.5824C96.4746 65.5019 96.5529 65.4257 96.6366 65.3543ZM98.0677 64.7415C98.1769 64.7303 98.2865 64.7261 98.3951 64.7287L98.4531 65.3776C98.4604 65.4676 98.3936 65.547 98.3045 65.5547C98.2142 65.5628 98.135 65.4964 98.1266 65.4067L98.0677 64.7415Z" fill="#FDA92F"/>
<path fill-rule="evenodd" clip-rule="evenodd" d="M91.9803 69.6779L79.3887 91.5655H74.2099C74.2099 91.5655 72.6187 94.959 75.0298 96.2016H98.7826C98.8073 96.2016 98.8309 96.2037 98.8556 96.207C99.3288 96.2412 102.032 96.1641 104.171 90.6325C107.645 81.6473 111.167 76.4638 114.724 69.6779H91.9803Z" fill="#E9E9EB"/>
<path d="M86.8436 89.8198C88.9058 90.1128 91.1135 88.719 91.7748 86.7067C92.436 84.6945 91.3004 82.8258 89.2382 82.5328C87.1761 82.2399 84.9683 83.6337 84.3071 85.6459C83.6458 87.6582 84.7815 89.5269 86.8436 89.8198Z" fill="white"/>
<path d="M111.927 70.8494L92.3755 70.6423L91.5385 72.1664L111.09 72.3735L111.927 70.8494Z" fill="#BABDC2"/>
<path d="M110.605 73.6406L90.9619 73.4645L90.1274 74.99L109.771 75.1661L110.605 73.6406Z" fill="#BABDC2"/>
<path d="M109.094 76.6913L89.3873 76.1796L88.5279 77.6903L108.235 78.2021L109.094 76.6913Z" fill="#BABDC2"/>
<path d="M107.524 79.7425L87.9199 78.8945L87.0365 80.39L106.64 81.2379L107.524 79.7425Z" fill="#BABDC2"/>
<path d="M105.417 82.8864L94.9523 82.3597L94.2184 83.8183L104.683 84.345L105.417 82.8864Z" fill="#BABDC2"/>
<path d="M103.683 85.9631L96.6163 85.5391L96.0045 87.0045L103.071 87.4285L103.683 85.9631Z" fill="#BABDC2"/>
<path d="M102.27 89.0587L92.8945 88.3613L92.3826 89.8338L101.758 90.5312L102.27 89.0587Z" fill="#BABDC2"/>
<path fill-rule="evenodd" clip-rule="evenodd" d="M79.8559 90.7548H96.8225C96.8418 90.7548 96.8611 90.7569 96.8805 90.759C97.0629 90.7837 97.2163 90.8833 97.2872 91.1147C97.3215 91.2261 97.3247 91.4478 97.2807 91.7477C97.1251 92.8221 96.4308 95.5333 99.2101 96.205C99.046 96.2232 98.9226 96.22 98.8517 96.2157C98.8271 96.2125 98.8035 96.2103 98.7788 96.2103H97.3269C97.2324 96.1268 97.1455 96.0389 97.065 95.9479C96.0864 94.8381 96.1915 93.2313 96.3504 92.1548C96.3772 91.9695 96.404 91.7692 96.4244 91.6117L79.3848 91.5742L79.8559 90.7548Z" fill="black"/>
<path d="M86.302 86.9237C86.5948 87.3027 87.0099 87.5409 87.5499 87.6526C88.1985 87.7716 88.5908 87.6215 88.7476 87.2063C88.8642 86.8655 88.7191 86.618 88.3124 86.4637C88.1196 86.3988 87.9129 86.3313 87.6876 86.2533C87.2856 86.1067 87.0095 85.8955 86.8641 85.6273C86.7139 85.3513 86.6995 85.0469 86.8139 84.7126C86.9502 84.314 87.1992 84.0195 87.5747 83.8319C87.9363 83.6415 88.3743 83.5962 88.8838 83.6883C89.498 83.8212 89.9782 84.0857 90.3267 84.4756L89.7139 84.9668C89.4225 84.6703 89.0542 84.4686 88.6116 84.3758C88.3822 84.3313 88.17 84.345 87.9797 84.4246C87.7824 84.5029 87.6418 84.6539 87.5601 84.8711C87.5139 85.0061 87.5299 85.1326 87.6038 85.2635C87.6776 85.3944 87.8341 85.5002 88.062 85.5924C88.1874 85.6373 88.3663 85.6994 88.5938 85.771C89.0397 85.9192 89.3275 86.1396 89.4641 86.4335C89.596 86.7196 89.6105 87.0241 89.4983 87.3519C89.1783 88.2222 88.4427 88.5525 87.3054 88.3456C86.5756 88.2039 86.0157 87.869 85.6304 87.3486L86.302 86.9237Z" fill="black"/>
<path fill-rule="evenodd" clip-rule="evenodd" d="M89.0298 83.0876L86.5405 88.7157L87.1168 88.8909L89.6274 83.2135L89.0298 83.0876Z" fill="black"/>
<path fill-rule="evenodd" clip-rule="evenodd" d="M142.014 81.7584C141.734 81.4521 141.36 81.2817 141.057 81.481C139.99 82.1805 139.262 82.9271 138.216 83.6544C134.982 85.9039 130.445 86.5306 128.439 90.2208C126.406 93.9592 126.303 98.5407 124.493 102.426C122.056 107.662 118.568 112.308 115.984 117.466C112.784 123.852 107.8 137.854 107.8 137.854C106.191 137.831 98.2532 138.864 93.4275 139.608C93.244 139.636 93.1142 139.801 93.1281 139.985C93.1421 140.17 93.2966 140.313 93.4822 140.313C104.859 140.313 138.218 140.313 145.979 140.313C146.375 140.313 146.741 140.102 146.939 139.76C147.138 139.418 147.14 138.996 146.942 138.653C145.949 136.919 144.229 135.903 142.313 135.429C140.84 135.065 139.418 135.244 137.934 135.369C137.878 135.373 137.807 135.383 137.764 135.339C137.754 135.328 137.739 135.309 137.732 135.296C137.338 134.48 137.549 129.846 137.562 128.804C137.616 124.461 137.81 120.106 138.184 115.778C138.304 114.389 138.553 110.394 138.553 110.394C138.553 110.394 141.899 109.935 142.859 109.717C145.224 109.184 147.156 107.655 148.508 105.667C150.514 102.718 150.644 98.7132 151.551 95.3582C152.31 92.5496 153.73 90.3611 154.943 87.7849C155.573 86.4481 155.351 84.4728 153.895 83.754C152.471 83.0503 150.978 84.521 150.082 85.4615C147.231 88.4587 147.085 92.5828 144.649 95.5553C142.922 97.6623 139.436 98.049 139.436 98.049C139.436 98.049 139.329 95.4793 139.436 94.7659C139.974 91.1956 141.99 88.9257 142.811 85.6404C143.048 84.6892 142.914 82.7396 142.014 81.7584Z" fill="#DD6140"/>
<path fill-rule="evenodd" clip-rule="evenodd" d="M133.979 111.884C135.53 111.093 138.55 110.403 138.55 110.403C138.55 110.403 138.471 111.682 138.379 113.043C137.215 112.622 135.756 112.498 134.144 112.525C133.987 112.527 133.849 112.421 133.81 112.27C133.771 112.118 133.84 111.958 133.979 111.884Z" fill="black"/>
<path fill-rule="evenodd" clip-rule="evenodd" d="M135.512 86.5269L136.201 87.0336C136.392 87.1739 136.661 87.1332 136.802 86.9426C136.943 86.7529 136.902 86.4841 136.711 86.3437L136.022 85.837C135.831 85.6967 135.563 85.7374 135.422 85.927C135.282 86.1177 135.321 86.3866 135.512 86.5269Z" fill="black"/>
<path fill-rule="evenodd" clip-rule="evenodd" d="M137.679 135.13C137.65 135.085 137.629 135.035 137.617 134.979C136.725 130.448 135.529 127.347 134.176 125.289C132.879 123.316 131.446 122.327 130.012 121.976C127.12 121.266 124.276 123.106 122.693 124.393C121.972 124.978 121.427 125.55 121.427 125.55C121.344 125.651 121.215 125.713 121.074 125.707C120.838 125.695 120.654 125.494 120.666 125.258C120.666 125.252 120.656 125.122 120.791 124.973C120.883 124.874 121.376 124.357 122.151 123.727C123.889 122.314 127.039 120.364 130.217 121.144C131.82 121.537 133.443 122.612 134.894 124.819C135.859 126.285 136.751 128.262 137.515 130.885C137.484 132.465 137.481 134.406 137.679 135.13ZM130.225 88.6922C130.225 88.6922 128.834 92.18 127.977 94.3331C127.463 95.6206 127.999 97.0882 129.222 97.7448C129.778 98.0458 130.343 98.2686 130.914 98.4089C131.689 98.6018 132.51 98.4261 133.138 97.9355C133.768 97.4438 134.135 96.6908 134.135 95.8927C134.135 93.1923 134.135 88.8497 134.135 88.8497C134.135 88.614 133.943 88.4212 133.706 88.4212C133.47 88.4212 133.277 88.614 133.277 88.8497C133.277 88.8497 133.277 93.1923 133.277 95.8927C133.277 96.4273 133.031 96.9307 132.609 97.2596C132.189 97.5895 131.639 97.7062 131.12 97.5777C130.617 97.4534 130.121 97.2563 129.629 96.9907C128.789 96.5397 128.422 95.5328 128.774 94.6502C129.633 92.4971 131.023 89.0082 131.023 89.0082C131.11 88.7886 131.003 88.539 130.783 88.4523C130.562 88.3644 130.313 88.4716 130.225 88.6922ZM139.414 97.1932C139.427 97.6848 139.442 98.049 139.442 98.049C139.442 98.049 139.51 98.0415 139.634 98.0233C139.104 98.1315 138.613 98.1776 138.153 98.1733C137.916 98.1711 137.726 97.9773 137.728 97.7416C137.73 97.5049 137.923 97.3142 138.16 97.3163C138.551 97.3195 138.966 97.281 139.414 97.1932ZM154.804 84.5532C154.964 84.7942 155.082 85.0641 155.16 85.348C153.53 86.5263 152.311 88.3205 152.253 88.4266C152.141 88.6344 151.88 88.7115 151.672 88.599C151.463 88.4865 151.386 88.2262 151.499 88.0184C151.563 87.8985 152.957 85.845 154.804 84.5532ZM153.215 83.5719C153.443 83.5848 153.673 83.6416 153.9 83.754C153.995 83.8001 154.084 83.8526 154.169 83.9094C153.476 84.4364 152.067 85.6361 150.621 87.6242C150.483 87.8149 150.213 87.8578 150.022 87.7185C149.83 87.5803 149.787 87.3115 149.927 87.1208C151.178 85.3994 152.407 84.2404 153.215 83.5719ZM139.637 82.5554C140.082 82.1912 140.53 81.8302 141.062 81.481C141.366 81.2817 141.739 81.4521 142.019 81.7584C142.232 81.9898 142.401 82.2747 142.534 82.5886C141.315 83.8515 139.969 82.8403 139.637 82.5554Z" fill="black"/>
<defs>
<linearGradient id="paint0_linear" x1="60.3773" y1="108.442" x2="166.189" y2="45.938" gradientUnits="userSpaceOnUse">
<stop stop-color="#B8D8D5"/>
<stop offset="0.42" stop-color="#CEE0DA"/>
<stop offset="1" stop-color="#FFF0E6"/>
</linearGradient>
<linearGradient id="paint1_linear" x1="25.5614" y1="33.5398" x2="-26.5892" y2="99.0033" gradientUnits="userSpaceOnUse">
<stop stop-color="#B8D8D5"/>
<stop offset="0.47" stop-color="#CCDFDA"/>
<stop offset="1" stop-color="#FFF0E6"/>
</linearGradient>
<linearGradient id="paint2_linear" x1="179.341" y1="47.3824" x2="211.562" y2="78.8151" gradientUnits="userSpaceOnUse">
<stop stop-color="#FFBF2F"/>
<stop offset="1" stop-color="#FD9500"/>
</linearGradient>
<linearGradient id="paint3_linear" x1="201.425" y1="106.036" x2="148.84" y2="70.5287" gradientUnits="userSpaceOnUse">
<stop stop-color="#FFBF2F"/>
<stop offset="0.48" stop-color="#FEB422"/>
<stop offset="1" stop-color="#FD9500"/>
</linearGradient>
</defs>
</svg>
